HIERARCHY
ROOT hip
{
	OFFSET 0.000000 0.000000 0.000000 
	CHANNELS 6 Xposition Yposition Zposition Xrotation Zrotation Yrotation
	JOINT abdomen
	{
		OFFSET 0.000000 3.402643 0.000000 
		CHANNELS 3 Xrotation Zrotation Yrotation
		JOINT chest
		{
			OFFSET 0.000000 8.438565 -0.680529 
			CHANNELS 3 Xrotation Zrotation Yrotation
			JOINT neck
			{
				OFFSET 0.000000 10.207942 -0.272212 
				CHANNELS 3 Xrotation Zrotation Yrotation
				JOINT head
				{
					OFFSET 0.000000 3.130431 0.000000 
					CHANNELS 3 Xrotation Zrotation Yrotation
					End Site
					{
						OFFSET 0.000000 3.130435 0.000000 
					}
				}
			}
			JOINT lCollar
			{
				OFFSET 3.470700 6.669187 -0.816635 
				CHANNELS 3 Yrotation Zrotation Xrotation
				JOINT lShldr
				{
					OFFSET 3.198488 0.000000 0.000000 
					CHANNELS 3 Zrotation Yrotation Xrotation
					JOINT lForeArm
					{
						OFFSET 10.139888 0.000000 0.000000 
						CHANNELS 3 Yrotation Zrotation Xrotation
						JOINT lHand
						{
							OFFSET 8.370511 0.000000 0.000000 
							CHANNELS 3 Zrotation Yrotation Xrotation
							End Site
							{
								OFFSET 4.083176 0.000000 0.000000 
							}
						}
					}
				}
			}
			JOINT rCollar
			{
				OFFSET -3.470700 6.669187 -0.816635 
				CHANNELS 3 Yrotation Zrotation Xrotation
				JOINT rShldr
				{
					OFFSET -3.198488 0.000000 0.000000 
					CHANNELS 3 Zrotation Yrotation Xrotation
					JOINT rForeArm
					{
						OFFSET -10.139888 0.000000 0.000000 
						CHANNELS 3 Yrotation Zrotation Xrotation
						JOINT rHand
						{
							OFFSET -8.370511 0.000000 0.000000 
							CHANNELS 3 Zrotation Yrotation Xrotation
							End Site
							{
								OFFSET -4.083176 0.000000 0.000000 
							}
						}
					}
				}
			}
		}
	}
	JOINT lThigh
	{
		OFFSET 5.308129 -1.633274 1.361059 
		CHANNELS 3 Xrotation Zrotation Yrotation
		JOINT lShin
		{
			OFFSET -2.041588 -20.007561 0.000000 
			CHANNELS 3 Xrotation Zrotation Yrotation
			JOINT lFoot
			{
				OFFSET 0.000000 -19.190928 -1.224953 
				CHANNELS 3 Xrotation Yrotation Zrotation
				End Site
				{
					OFFSET 0.000000 -2.449906 4.627600 
				}
			}
		}
	}
	JOINT rThigh
	{
		OFFSET -5.308129 -1.633274 1.361059 
		CHANNELS 3 Xrotation Zrotation Yrotation
		JOINT rShin
		{
			OFFSET 2.041588 -20.007561 0.000000 
			CHANNELS 3 Xrotation Zrotation Yrotation
			JOINT rFoot
			{
				OFFSET 0.000000 -19.190928 -1.224953 
				CHANNELS 3 Xrotation Yrotation Zrotation
				End Site
				{
					OFFSET 0.000000 -2.449906 4.627600 
				}
			}
		}
	}
}
MOTION
Frames: 10
Frame Time: 0.033333
-0.159114 52.744278 -0.352803 176.132828 179.648438 -0.908143 22.324083 -9.668440 -1.240318 -22.773439 11.689453 7.099609 51.553619 8.070152 2.616707 -47.861332 -10.527343 -4.951173 2.000000 -2.000000 0.000000 -84.667969 20.986330 -13.404705 -106.192551 0.787014 -2.829357 53.579243 49.260105 80.198097 -2.000000 2.000000 0.000000 83.603516 -11.240234 10.173879 48.137028 1.582621 -1.693944 16.978399 -62.506618 -7.976064 9.101352 3.220864 4.790185 -0.861409 -5.930212 -0.137648 -2.094990 4.893945 -3.553383 9.592519 -5.417126 -11.188611 -1.540749 5.858425 -0.076592 -0.675862 -4.600763 3.479997 
-0.341323 52.653870 -0.671145 175.947266 179.648438 -0.556581 22.349476 -9.415074 -1.331321 -22.763672 11.865233 6.955134 51.553619 8.070152 2.616707 -48.427734 -10.849608 -5.058594 2.000000 -2.000000 0.000000 -84.658203 21.386719 -13.521827 -106.192833 0.776700 -2.838537 53.837742 49.380562 80.404030 -2.000000 2.000000 0.000000 83.476563 -10.361329 10.271681 47.434181 1.573442 -1.704259 16.964949 -62.281517 -8.100630 8.948614 3.172299 3.900663 -0.890217 -6.307290 0.021083 -3.060370 5.067536 -3.694696 9.417956 -5.563985 -11.520975 -1.190470 5.843663 0.111290 -1.172970 -4.541951 3.404651 
-0.557471 52.601139 -0.956718 175.595703 179.648438 -0.205018 22.375998 -9.331689 -1.498191 -22.929688 12.050782 6.933594 51.553619 8.070152 2.616707 -49.140625 -10.966796 -5.107423 2.000000 -2.000000 0.000000 -84.765625 21.562502 -13.662109 -106.192551 0.787014 -2.829357 53.585819 49.446503 80.387726 -2.000000 2.000000 0.000000 83.095703 -9.882813 10.222932 47.258400 1.573442 -1.704259 16.746498 -62.286858 -7.996988 8.905086 2.910040 3.005185 -0.722990 -6.299262 -0.004286 -3.612071 4.903085 -3.830266 9.569215 -5.722198 -11.542529 -0.839556 5.504618 -0.034238 -1.758548 -5.018381 3.524578 
-0.788419 52.525810 -1.214118 175.429688 179.648438 0.322326 22.401974 -9.246034 -1.641772 -22.929688 12.050782 6.933594 51.553619 8.070152 2.616707 -49.873047 -11.093749 -5.341797 2.000000 -2.000000 0.000000 -84.755859 21.503906 -13.365560 -106.192551 0.787014 -2.829357 53.144180 49.610920 79.784531 -2.000000 2.000000 0.000000 82.978516 -9.990234 10.312501 47.069672 1.752397 -1.585954 16.646885 -62.138233 -7.850260 9.471508 2.949159 2.135529 -0.898919 -6.381060 0.189759 -4.570221 4.961592 -4.402411 9.562205 -5.699518 -11.717883 -0.848871 5.334962 -0.040540 -1.750514 -5.261081 3.628406 
-1.035339 52.458004 -1.411822 175.068359 179.648438 0.664122 22.427597 -9.153531 -1.805219 -22.929688 12.226563 6.777344 51.553619 8.070152 2.616707 -50.625004 -11.386719 -5.390625 2.000000 -2.000000 0.000000 -85.205078 21.416016 -13.671874 -106.368065 0.777829 -2.819046 53.086773 49.539558 79.771614 -2.000000 2.000000 0.000000 82.949219 -9.863281 9.882813 47.069672 1.752397 -1.585954 16.990135 -62.291801 -8.091266 8.835625 2.470689 1.741118 -0.713184 -6.300592 -0.014916 -4.516515 5.207446 -4.713007 9.300560 -6.042249 -11.754088 -0.683395 5.329747 0.002899 -2.067094 -5.334542 4.104435 
-1.276167 52.427872 -1.597434 174.892593 179.648438 1.015685 22.463491 -9.073586 -1.962943 -23.105469 12.412109 6.748048 51.553619 8.070152 2.616707 -51.162113 -11.513671 -5.644532 2.000000 -2.000000 0.000000 -85.410156 21.220703 -13.857423 -106.349464 0.610397 -2.838668 52.755966 49.640945 79.534889 -2.000000 2.000000 0.000000 82.792969 -10.253906 9.207249 46.875832 1.941621 -1.643668 16.645353 -62.343475 -7.705546 8.749133 2.207345 1.175208 -0.722902 -6.322659 -0.169547 -4.826725 5.137256 -4.882205 9.302197 -6.130600 -12.480198 -0.497585 5.304126 0.155754 -2.447867 -5.574488 4.131796 
-1.529784 52.345009 -1.762922 174.550781 179.648438 1.543029 22.479822 -8.997073 -2.109993 -23.105469 12.587891 6.591798 51.553619 8.070152 2.616707 -51.904297 -11.630858 -5.810547 2.000000 -2.000000 0.000000 -85.429688 21.396484 -13.769532 -106.727608 0.956706 -2.770916 52.088585 49.735897 79.098732 -2.000000 2.000000 0.000000 82.431641 -10.556642 8.865398 47.254799 1.692762 -1.569885 16.993185 -62.624222 -8.249892 9.079474 2.138422 0.259489 -0.528160 -6.180652 0.004125 -5.554394 5.504419 -4.956955 9.164516 -6.491517 -12.506753 -0.321817 5.314037 0.004477 -2.418244 -5.525929 3.973194 
-1.791469 52.299812 -1.928709 174.189468 179.648438 1.894591 22.680332 -8.898883 -2.260863 -23.281250 12.587892 6.554862 51.553619 8.070152 2.616707 -52.626957 -11.748046 -6.035157 2.000000 -2.000000 0.000000 -85.419922 21.894533 -13.623047 -107.078087 0.958967 -2.731934 51.637466 49.910038 78.513237 -2.000000 2.000000 0.000000 82.617188 -10.898437 8.396593 47.258400 1.573442 -1.704259 17.456060 -62.956421 -8.628135 8.313713 1.757123 -0.116210 -0.537293 -6.292050 -0.197275 -5.500936 5.440910 -5.390690 9.076368 -6.647833 -12.689445 -0.156649 5.328569 -0.119302 -2.945562 -5.610985 4.225903 
-2.038108 52.247074 -2.086698 174.013687 179.648438 2.421935 22.661415 -8.743698 -2.201068 -23.457033 12.763672 6.533204 51.553619 8.070152 2.616707 -53.339848 -11.689452 -6.416016 2.000000 -2.000000 0.000000 -85.693359 22.470705 -13.443532 -107.423973 0.940742 -2.877388 50.756653 50.161774 77.740349 -2.000000 2.000000 0.000000 82.724609 -11.943360 8.046876 47.434181 1.573442 -1.704259 17.124905 -63.223244 -8.117670 8.247969 1.483997 -0.297411 -0.342458 -5.933570 -0.213247 -5.955204 5.263461 -5.935521 8.928077 -6.910190 -13.422874 0.194824 5.301034 0.076715 -3.492084 -5.450677 4.209517 
-2.284124 52.194336 -2.239318 173.671890 179.648438 2.773498 23.013109 -8.747125 -2.191924 -24.003906 12.617188 6.574399 51.553619 8.070152 2.616707 -53.906254 -11.816404 -6.826173 2.000000 -2.000000 0.000000 -85.751953 23.310547 -13.043009 -107.968231 1.111563 -2.799482 49.747227 50.486301 76.609413 -2.000000 2.000000 0.000000 83.466797 -12.910157 6.660156 47.434162 1.583191 -1.703690 16.730349 -63.606197 -7.881975 7.996536 1.386385 -0.956123 -0.145934 -6.108297 -0.277160 -6.198353 5.265415 -5.906618 8.780916 -7.104455 -14.501837 0.536839 5.299124 0.261624 -3.801857 -5.233331 3.834178 
